# xmcd CD database file
#
# Track frame offsets:
#        183
#        14235
#        35230
#        47410
#        62238
#        73388
#        94380
#        111830
#        124105
#        134470
#        147660
#        160478
#        171040
#
# Disc length: 2521 seconds
#
# Revision: 0
# Processed by: cddbd v1.5.2PL0 Copyright (c) Steve Scherf et al.
# Submitted via: CUERipper 2.1.5
#
DISCID=d209d70d
DTITLE=John Hammond - Mileage
DYEAR=1980
DGENRE=Blues
TTITLE0=My Babe
TTITLE1=Standing Around Crying
TTITLE2=Riding in the Moonlight
TTITLE3=Big 45
TTITLE4=Seventh Son
TTITLE5=Red Hot kisses
TTITLE6=Help Me
TTITLE7=It Hurts Me
TTITLE8=32-20 blues
TTITLE9=You'll Miss Me
TTITLE10=Mr. Luck
TTITLE11=Hot Tamales
TTITLE12=Diddley daddy
EXTD=
EXTT0=
EXTT1=
EXTT2=
EXTT3=
EXTT4=
EXTT5=
EXTT6=
EXTT7=
EXTT8=
EXTT9=
EXTT10=
EXTT11=
EXTT12=
PLAYORDER=
